# xmcd CD database file
#
# Track frame offsets:
#	150
#	17400
#	34982
#
# Disc length: 676 seconds
#
# Revision: 0
# Processed by: cddbd v1.5.1PL0 Copyright (c) Steve Scherf et al.
# Submitted via: CDex 1.51
#
DISCID=1902a203
DTITLE=New Cinema 蜥蜴 - CaNDY LiFe
DYEAR=1999
DGENRE=JPop
TTITLE0=CaNDY Life
TTITLE1=ミラクルフィッシュ
TTITLE2=金のエンゼル
EXTD=YEAR: 1999
EXTT0=
EXTT1=
EXTT2=
PLAYORDER=
